<svg width="25" height="24" viewBox="0 0 25 24" fill="none" xmlns="http://www.w3.org/2000/svg">
<g id="simple-icons:cisco" clip-path="url(#clip0_341_4458)">
<path id="Vector" d="M16.931 18.171V17.06L16.909 17.07C16.659 17.191 16.387 17.26 16.108 17.273C15.8194 17.295 15.5327 17.2107 15.302 17.036C15.1374 16.909 15.0148 16.7355 14.95 16.538C14.8799 16.3222 14.872 16.0911 14.927 15.871C14.979 15.646 15.105 15.445 15.284 15.302C15.444 15.168 15.639 15.084 15.846 15.06C16.2115 15.0191 16.5809 15.088 16.907 15.258L16.931 15.271V14.154L16.88 14.14C16.5536 14.0358 16.2112 13.9911 15.869 14.008C15.5573 14.0158 15.2502 14.0858 14.966 14.214C14.679 14.346 14.426 14.541 14.227 14.785C13.9234 15.1685 13.7548 15.6416 13.7476 16.1307C13.7404 16.6198 13.8948 17.0976 14.187 17.49C14.482 17.868 14.896 18.135 15.362 18.246C15.853 18.366 16.368 18.348 16.849 18.194L16.931 18.171ZM5.93598 18.171V17.06L5.91398 17.07C5.66398 17.191 5.39198 17.26 5.11298 17.273C4.82436 17.2953 4.5376 17.2109 4.30698 17.036C4.14243 16.9092 4.02008 16.7356 3.95598 16.538C3.88517 16.3224 3.87685 16.0911 3.93198 15.871C3.98398 15.646 4.10898 15.445 4.28898 15.302C4.44898 15.168 4.64398 15.084 4.85098 15.06C5.21646 15.0191 5.58585 15.088 5.91198 15.258L5.93598 15.271V14.154L5.88498 14.14C5.55859 14.0358 5.21616 13.9911 4.87398 14.008C4.56227 14.0159 4.25528 14.0859 3.97098 14.214C3.68418 14.3457 3.43113 14.541 3.23098 14.785C2.92768 15.1686 2.7593 15.6415 2.75189 16.1305C2.74448 16.6195 2.89845 17.0973 3.18998 17.49C3.48468 17.8683 3.89946 18.135 4.36598 18.246C4.85698 18.366 5.37098 18.348 5.85298 18.194L5.93598 18.171ZM9.85998 17.249L9.85598 18.206L9.92598 18.218C10.146 18.259 10.367 18.287 10.59 18.303C10.785 18.322 10.981 18.325 11.177 18.315C11.364 18.301 11.549 18.266 11.728 18.211C11.938 18.151 12.133 18.048 12.299 17.906C12.4488 17.7776 12.5634 17.6131 12.632 17.428C12.7512 17.1186 12.7487 16.7756 12.625 16.468C12.5605 16.3079 12.4583 16.1659 12.327 16.054C12.1997 15.9402 12.0507 15.8535 11.889 15.799L11.167 15.531C11.0808 15.4942 11.0108 15.4274 10.97 15.343C10.9542 15.3084 10.9467 15.2706 10.9481 15.2325C10.9495 15.1945 10.9597 15.1574 10.978 15.124C11.0151 15.0632 11.0684 15.0141 11.132 14.982C11.2129 14.943 11.2998 14.918 11.389 14.908C11.542 14.886 11.697 14.887 11.849 14.913C12.029 14.933 12.207 14.964 12.382 15.009L12.42 15.017V14.134L12.351 14.119C12.172 14.0762 11.9907 14.0438 11.808 14.022C11.571 13.991 11.3312 13.99 11.094 14.019C10.794 14.046 10.509 14.162 10.273 14.349C10.113 14.475 9.99197 14.642 9.92198 14.833C9.81798 15.123 9.81698 15.441 9.92198 15.732C9.97598 15.877 10.062 16.006 10.174 16.113C10.271 16.206 10.381 16.286 10.501 16.349C10.658 16.433 10.825 16.498 10.998 16.544C11.055 16.561 11.112 16.579 11.168 16.598L11.253 16.629L11.277 16.639C11.361 16.669 11.439 16.717 11.503 16.779C11.548 16.821 11.583 16.873 11.604 16.93C11.6178 16.9827 11.6182 17.0381 11.605 17.091C11.578 17.1763 11.5183 17.2475 11.439 17.289C11.3528 17.333 11.2598 17.3621 11.164 17.375C11.0228 17.397 10.8797 17.404 10.737 17.396C10.5501 17.3814 10.3642 17.3567 10.18 17.322C10.084 17.3012 9.98828 17.2789 9.89298 17.255L9.85998 17.249ZM7.38498 18.244H8.43498V14.077H7.38498V18.244ZM19.547 15.308C19.6585 15.2171 19.7869 15.1492 19.9247 15.1079C20.0625 15.0667 20.2071 15.053 20.3502 15.0677C20.4933 15.0824 20.6321 15.1251 20.7587 15.1934C20.8853 15.2618 20.9972 15.3544 21.088 15.466C21.179 15.5774 21.2472 15.7057 21.2886 15.8435C21.3299 15.9813 21.3437 16.1259 21.3292 16.2691C21.3146 16.4122 21.2719 16.5511 21.2036 16.6777C21.1352 16.8043 21.0426 16.9162 20.931 17.007L20.914 17.021C20.6862 17.1956 20.3991 17.274 20.1142 17.2392C19.8293 17.2043 19.5694 17.0592 19.3904 16.8349C19.2114 16.6105 19.1275 16.325 19.1568 16.0394C19.1861 15.7539 19.3262 15.4913 19.547 15.308ZM18.022 16.162C18.0271 16.4872 18.1044 16.8073 18.2485 17.0989C18.3926 17.3906 18.5997 17.6465 18.8549 17.8482C19.1101 18.0499 19.407 18.1923 19.7241 18.2651C20.0411 18.3379 20.3704 18.3392 20.688 18.269C21.1142 18.1883 21.5059 17.98 21.811 17.6716C22.116 17.3632 22.3202 16.9693 22.3962 16.5422C22.4722 16.1152 22.4166 15.675 22.2367 15.2803C22.0569 14.8855 21.7612 14.5548 21.389 14.332C21.0581 14.1274 20.679 14.014 20.2901 14.0031C19.9012 13.9922 19.5164 14.0844 19.1745 14.2701C18.8327 14.4559 18.5461 14.7288 18.3437 15.061C18.1413 15.3932 18.0303 15.773 18.022 16.162ZM23.561 10.728C23.5668 10.8618 23.6241 10.9882 23.7209 11.0809C23.8177 11.1735 23.9465 11.2252 24.0805 11.2252C24.2144 11.2252 24.3432 11.1735 24.44 11.0809C24.5368 10.9882 24.5941 10.8618 24.6 10.728V9.57299C24.5941 9.43916 24.5368 9.31275 24.44 9.22012C24.3432 9.12749 24.2144 9.07579 24.0805 9.07579C23.9465 9.07579 23.8177 9.12749 23.7209 9.22012C23.6241 9.31275 23.5668 9.43916 23.561 9.57299V10.728ZM20.717 10.728C20.7269 10.8592 20.7861 10.9818 20.8826 11.0713C20.9791 11.1607 21.1059 11.2104 21.2375 11.2104C21.3691 11.2104 21.4958 11.1607 21.5923 11.0713C21.6888 10.9818 21.748 10.8592 21.758 10.728V8.13899C21.7498 8.00665 21.6914 7.88243 21.5948 7.79162C21.4982 7.70081 21.3706 7.65026 21.238 7.65026C21.1054 7.65026 20.9778 7.70081 20.8812 7.79162C20.7845 7.88243 20.7262 8.00665 20.718 8.13899L20.717 10.728ZM17.831 11.771C17.8409 11.902 17.9 12.0243 17.9963 12.1136C18.0926 12.2029 18.2191 12.2525 18.3505 12.2525C18.4818 12.2525 18.6083 12.2029 18.7046 12.1136C18.801 12.0243 18.86 11.902 18.87 11.771V6.16999C18.8641 6.03616 18.8068 5.90975 18.71 5.81712C18.6132 5.72449 18.4844 5.67279 18.3505 5.67279C18.2165 5.67279 18.0877 5.72449 17.9909 5.81712C17.8941 5.90975 17.8368 6.03616 17.831 6.16999V11.771ZM14.993 10.728C15.0012 10.8603 15.0595 10.9846 15.1562 11.0754C15.2528 11.1662 15.3804 11.2167 15.513 11.2167C15.6456 11.2167 15.7732 11.1662 15.8698 11.0754C15.9664 10.9846 16.0248 10.8603 16.033 10.728V8.13899C16.0271 8.00516 15.9698 7.87875 15.873 7.78612C15.7762 7.69349 15.6474 7.64179 15.5135 7.64179C15.3795 7.64179 15.2507 7.69349 15.1539 7.78612C15.0571 7.87875 14.9998 8.00516 14.994 8.13899V10.728M12.094 10.728C12.1066 10.857 12.1668 10.9766 12.2629 11.0637C12.3589 11.1507 12.4839 11.199 12.6135 11.199C12.7431 11.199 12.8681 11.1507 12.9641 11.0637C13.0601 10.9766 13.1203 10.857 13.133 10.728V9.57299C13.1271 9.43916 13.0698 9.31275 12.973 9.22012C12.8762 9.12749 12.7474 9.07579 12.6135 9.07579C12.4795 9.07579 12.3507 9.12749 12.2539 9.22012C12.1571 9.31275 12.0998 9.43916 12.094 9.57299V10.728ZM9.22398 10.728C9.22985 10.8618 9.28715 10.9882 9.38393 11.0809C9.48071 11.1735 9.60951 11.2252 9.74348 11.2252C9.87744 11.2252 10.0062 11.1735 10.103 11.0809C10.1998 10.9882 10.2571 10.8618 10.263 10.728V8.13899C10.2571 8.00516 10.1998 7.87875 10.103 7.78612C10.0062 7.69349 9.87744 7.64179 9.74348 7.64179C9.60951 7.64179 9.48071 7.69349 9.38393 7.78612C9.28715 7.87875 9.22985 8.00516 9.22398 8.13899V10.728ZM6.33698 11.771C6.34285 11.9048 6.40015 12.0312 6.49693 12.1239C6.59371 12.2165 6.72251 12.2682 6.85648 12.2682C6.99044 12.2682 7.11924 12.2165 7.21602 12.1239C7.3128 12.0312 7.3701 11.9048 7.37598 11.771V6.16999C7.3701 6.03616 7.3128 5.90975 7.21602 5.81712C7.11924 5.72449 6.99044 5.67279 6.85648 5.67279C6.72251 5.67279 6.59371 5.72449 6.49693 5.81712C6.40015 5.90975 6.34285 6.03616 6.33698 6.16999V11.771ZM3.47598 10.728C3.48739 10.858 3.54712 10.9791 3.64338 11.0673C3.73963 11.1554 3.86544 11.2043 3.99598 11.2043C4.12652 11.2043 4.25232 11.1554 4.34858 11.0673C4.44483 10.9791 4.50456 10.858 4.51598 10.728V8.13899C4.5101 8.00516 4.4528 7.87875 4.35602 7.78612C4.25924 7.69349 4.13044 7.64179 3.99648 7.64179C3.86251 7.64179 3.73371 7.69349 3.63693 7.78612C3.54015 7.87875 3.48285 8.00516 3.47698 8.13899V10.728M0.599976 10.728C0.609935 10.859 0.668988 10.9813 0.765316 11.0706C0.861643 11.1599 0.988137 11.2095 1.11948 11.2095C1.25081 11.2095 1.37731 11.1599 1.47364 11.0706C1.56996 10.9813 1.62902 10.859 1.63898 10.728V9.57299C1.6331 9.43916 1.5758 9.31275 1.47902 9.22012C1.38224 9.12749 1.25344 9.07579 1.11948 9.07579C0.98551 9.07579 0.856713 9.12749 0.759931 9.22012C0.663148 9.31275 0.605849 9.43916 0.599976 9.57299V10.728Z" fill="white"/>
</g>
<defs>
<clipPath id="clip0_341_4458">
<rect width="24" height="24" fill="white" transform="translate(0.599976)"/>
</clipPath>
</defs>
</svg>
