<svg width="24" height="24" viewBox="0 0 24 24" fill="none" xmlns="http://www.w3.org/2000/svg">
<g id="solar:refresh-circle-outline">
<g id="Group">
<path id="Vector" d="M6.71303 10.674C7.16703 8.154 9.38503 6.25 12.043 6.25C13.621 6.25 15.043 6.92 16.033 7.99C16.1 8.06229 16.1521 8.14707 16.1863 8.23949C16.2205 8.33191 16.2362 8.43016 16.2324 8.52864C16.2287 8.62711 16.2055 8.72389 16.1644 8.81343C16.1232 8.90297 16.0648 8.98353 15.9925 9.0505C15.9202 9.11747 15.8355 9.16955 15.743 9.20376C15.6506 9.23797 15.5524 9.25365 15.4539 9.24989C15.3554 9.24613 15.2586 9.22301 15.1691 9.18185C15.0796 9.14069 14.999 9.08229 14.932 9.01C14.564 8.61162 14.1173 8.29394 13.6202 8.07706C13.1231 7.86017 12.5864 7.74881 12.044 7.75C11.1744 7.747 10.3287 8.03396 9.64046 8.56552C8.95224 9.09707 8.46087 9.84288 8.24403 10.685L8.48103 10.459C8.62569 10.3279 8.81576 10.2584 9.01085 10.2653C9.20593 10.2721 9.39067 10.3547 9.52581 10.4956C9.66094 10.6365 9.73584 10.8245 9.73457 11.0197C9.7333 11.2149 9.65598 11.4019 9.51903 11.541L7.89703 13.097C7.82415 13.1668 7.73793 13.2212 7.64354 13.2569C7.54914 13.2926 7.44851 13.3089 7.34767 13.3048C7.24683 13.3007 7.14785 13.2763 7.05667 13.233C6.9655 13.1897 6.88399 13.1285 6.81703 13.053L5.43903 11.497C5.36942 11.4241 5.31524 11.3378 5.27972 11.2435C5.24419 11.1491 5.22806 11.0485 5.23229 10.9478C5.23651 10.8471 5.26101 10.7482 5.3043 10.6572C5.3476 10.5661 5.40882 10.4847 5.48429 10.4178C5.55976 10.351 5.64794 10.3 5.74355 10.268C5.83916 10.236 5.94024 10.2236 6.04076 10.2316C6.14127 10.2395 6.23915 10.2676 6.32854 10.3143C6.41794 10.3609 6.49701 10.4251 6.56103 10.503L6.71303 10.674ZM16.648 10.696C16.749 10.6998 16.8482 10.724 16.9397 10.7672C17.0311 10.8103 17.1128 10.8715 17.18 10.947L18.56 12.502C18.6301 12.5747 18.6848 12.6609 18.7208 12.7553C18.7567 12.8497 18.7733 12.9504 18.7694 13.0513C18.7655 13.1522 18.7412 13.2513 18.6981 13.3427C18.6549 13.434 18.5938 13.5157 18.5183 13.5828C18.4428 13.6499 18.3546 13.7011 18.2588 13.7333C18.1631 13.7655 18.0618 13.778 17.9611 13.7701C17.8604 13.7621 17.7623 13.734 17.6728 13.6872C17.5833 13.6405 17.5041 13.5761 17.44 13.498L17.284 13.323C16.83 15.846 14.601 17.751 11.934 17.751C11.1883 17.7522 10.4503 17.6002 9.76564 17.3045C9.08103 17.0088 8.46442 16.5757 7.95403 16.032C7.88264 15.961 7.82627 15.8764 7.78828 15.7832C7.75029 15.6899 7.73146 15.59 7.73291 15.4894C7.73435 15.3887 7.75605 15.2894 7.7967 15.1973C7.83735 15.1052 7.89613 15.0222 7.96953 14.9533C8.04292 14.8844 8.12944 14.831 8.22392 14.7963C8.3184 14.7615 8.41891 14.7461 8.51945 14.751C8.62 14.756 8.71853 14.7811 8.80917 14.8249C8.89981 14.8687 8.9807 14.9303 9.04703 15.006C9.41739 15.4004 9.86486 15.7144 10.3617 15.9286C10.8585 16.1427 11.394 16.2525 11.935 16.251C12.8061 16.2549 13.6538 15.9689 14.3445 15.4381C15.0352 14.9073 15.5297 14.1618 15.75 13.319L15.52 13.541C15.3765 13.6789 15.1842 13.7542 14.9852 13.7502C14.7862 13.7463 14.5969 13.6635 14.459 13.52C14.3211 13.3765 14.2459 13.1841 14.2498 12.9852C14.2537 12.7862 14.3365 12.5969 14.48 12.459L16.1 10.904C16.1727 10.8343 16.2587 10.78 16.3529 10.7442C16.447 10.7085 16.5474 10.6921 16.648 10.696Z" fill="#D7E1EC"/>
<path id="Vector_2" fill-rule="evenodd" clip-rule="evenodd" d="M12 1.25C6.063 1.25 1.25 6.063 1.25 12C1.25 17.937 6.063 22.75 12 22.75C17.937 22.75 22.75 17.937 22.75 12C22.75 6.063 17.937 1.25 12 1.25ZM2.75 12C2.75 9.54675 3.72455 7.19397 5.45926 5.45926C7.19397 3.72455 9.54675 2.75 12 2.75C14.4533 2.75 16.806 3.72455 18.5407 5.45926C20.2754 7.19397 21.25 9.54675 21.25 12C21.25 14.4533 20.2754 16.806 18.5407 18.5407C16.806 20.2754 14.4533 21.25 12 21.25C9.54675 21.25 7.19397 20.2754 5.45926 18.5407C3.72455 16.806 2.75 14.4533 2.75 12Z" fill="#D7E1EC"/>
</g>
</g>
</svg>
